solid vcg
  facet normal  3.419179e-03 -7.081968e-02  9.974833e-01
    outer loop
      vertex   8.496190e+01 -1.160990e+01  9.500000e+00
      vertex   8.591720e+01  9.563470e+00  1.100000e+01
      vertex  -8.522130e+01  1.300890e+00  1.100000e+01
    endloop
  endfacet
  facet normal  1.592651e-03 -6.765996e-01  7.363493e-01
    outer loop
      vertex  -7.723660e+01 -1.199170e+01  9.500000e+00
      vertex   6.300000e+00 -2.799540e+01 -5.385790e+00
      vertex   8.496190e+01 -1.160990e+01  9.500000e+00
    endloop
  endfacet
  facet normal  2.635826e-04 -1.119768e-01  9.937108e-01
    outer loop
      vertex  -7.723660e+01 -1.199170e+01  9.500000e+00
      vertex   8.496190e+01 -1.160990e+01  9.500000e+00
      vertex  -8.522130e+01  1.300890e+00  1.100000e+01
    endloop
  endfacet
  facet normal -6.839493e-03  1.416629e-01  9.898914e-01
    outer loop
      vertex  -7.450000e+01  1.230000e+01  9.500000e+00
      vertex  -8.522130e+01  1.300890e+00  1.100000e+01
      vertex   8.591720e+01  9.563470e+00  1.100000e+01
    endloop
  endfacet
  facet normal  0.000000e+00  9.997291e-01 -2.327488e-02
    outer loop
      vertex   8.090000e+01  1.163640e+01 -1.900370e+01
      vertex  -7.450000e+01  1.163640e+01 -1.900370e+01
      vertex  -7.450000e+01  1.230000e+01  9.500000e+00
    endloop
  endfacet
  facet normal  2.074909e-01 -9.780348e-01 -1.988732e-02
    outer loop
      vertex   8.358320e+01 -1.132280e+01 -1.900370e+01
      vertex   8.496190e+01 -1.160990e+01  9.500000e+00
      vertex   6.300000e+00 -2.799540e+01 -5.385790e+00
    endloop
  endfacet
  facet normal  0.000000e+00  0.000000e+00 -1.000000e+00
    outer loop
      vertex  -8.012580e+01  7.743870e+00 -2.500000e+01
      vertex   9.045250e+01  6.024350e-01 -2.500000e+01
      vertex  -7.911010e+01 -8.387890e+00 -2.500000e+01
    endloop
  endfacet
  facet normal  0.000000e+00  0.000000e+00 -1.000000e+00
    outer loop
      vertex   8.090000e+01 -9.571670e+00 -2.500000e+01
      vertex  -7.911010e+01 -8.387890e+00 -2.500000e+01
      vertex   9.045250e+01  6.024350e-01 -2.500000e+01
    endloop
  endfacet
  facet normal  0.000000e+00 -0.000000e+00 -1.000000e+00
    outer loop
      vertex   8.090000e+01  9.571670e+00 -2.500000e+01
      vertex   9.045250e+01  6.024350e-01 -2.500000e+01
      vertex  -8.012580e+01  7.743870e+00 -2.500000e+01
    endloop
  endfacet
  facet normal  0.000000e+00  9.455167e-01 -3.255737e-01
    outer loop
      vertex   8.090000e+01  9.571670e+00 -2.500000e+01
      vertex  -7.450000e+01  1.163640e+01 -1.900370e+01
      vertex   8.090000e+01  1.163640e+01 -1.900370e+01
    endloop
  endfacet
  facet normal -9.566649e-03  8.428041e-01 -5.381353e-01
    outer loop
      vertex   8.090000e+01  9.571670e+00 -2.500000e+01
      vertex  -8.012580e+01  7.743870e+00 -2.500000e+01
      vertex  -7.450000e+01  1.163640e+01 -1.900370e+01
    endloop
  endfacet
  facet normal -4.313577e-03 -5.830611e-01 -8.124169e-01
    outer loop
      vertex  -6.300000e+00 -2.646790e+01 -1.241080e+01
      vertex  -7.911010e+01 -8.387890e+00 -2.500000e+01
      vertex   8.090000e+01 -9.571670e+00 -2.500000e+01
    endloop
  endfacet
  facet normal  9.761185e-01  2.041847e-01 -7.417027e-02
    outer loop
      vertex   8.936370e+01  7.985670e+00 -1.900370e+01
      vertex   9.320000e+01 -5.000000e-06  9.500000e+00
      vertex   9.045250e+01  6.024350e-01 -2.500000e+01
    endloop
  endfacet
  facet normal -6.735359e-01  7.347823e-01 -8.027646e-02
    outer loop
      vertex  -8.319710e+01  8.697770e+00  9.500000e+00
      vertex  -8.012580e+01  7.743870e+00 -2.500000e+01
      vertex  -8.564750e+01  3.337530e+00 -1.900370e+01
    endloop
  endfacet
  facet normal -3.825745e-01  9.236743e-01 -2.150424e-02
    outer loop
      vertex  -8.319710e+01  8.697770e+00  9.500000e+00
      vertex  -7.450000e+01  1.230000e+01  9.500000e+00
      vertex  -7.450000e+01  1.163640e+01 -1.900370e+01
    endloop
  endfacet
  facet normal -5.164012e-01  8.535161e-01 -6.957074e-02
    outer loop
      vertex  -8.319710e+01  8.697770e+00  9.500000e+00
      vertex  -7.450000e+01  1.163640e+01 -1.900370e+01
      vertex  -8.012580e+01  7.743870e+00 -2.500000e+01
    endloop
  endfacet
  facet normal -9.195377e-02  2.220100e-01  9.706988e-01
    outer loop
      vertex  -8.319710e+01  8.697770e+00  9.500000e+00
      vertex  -8.522130e+01  1.300890e+00  1.100000e+01
      vertex  -7.450000e+01  1.230000e+01  9.500000e+00
    endloop
  endfacet
  facet normal -9.623722e-01  2.698456e-01  3.198746e-02
    outer loop
      vertex  -8.319710e+01  8.697770e+00  9.500000e+00
      vertex  -8.564750e+01  3.337530e+00 -1.900370e+01
      vertex  -8.522130e+01  1.300890e+00  1.100000e+01
    endloop
  endfacet
  facet normal  9.968266e-01  7.444874e-03 -7.925489e-02
    outer loop
      vertex   9.097720e+01 -5.818470e+00 -1.900370e+01
      vertex   9.045250e+01  6.024350e-01 -2.500000e+01
      vertex   9.320000e+01 -5.000000e-06  9.500000e+00
    endloop
  endfacet
  facet normal  5.967299e-01 -8.015915e-01 -3.693729e-02
    outer loop
      vertex   9.097720e+01 -5.818470e+00 -1.900370e+01
      vertex   8.496190e+01 -1.160990e+01  9.500000e+00
      vertex   8.358320e+01 -1.132280e+01 -1.900370e+01
    endloop
  endfacet
  facet normal -1.356378e-01 -1.911768e-01  9.721388e-01
    outer loop
      vertex  -8.491450e+01 -6.544320e+00  9.500000e+00
      vertex  -7.723660e+01 -1.199170e+01  9.500000e+00
      vertex  -8.522130e+01  1.300890e+00  1.100000e+01
    endloop
  endfacet
  facet normal -5.786447e-01 -8.155798e-01 -1.578114e-05
    outer loop
      vertex  -8.491450e+01 -6.544320e+00  9.500000e+00
      vertex  -8.491470e+01 -6.543990e+00  0.000000e+00
      vertex  -7.723660e+01 -1.199170e+01  9.500000e+00
    endloop
  endfacet
  facet normal -9.990839e-01 -4.124909e-02  1.139196e-02
    outer loop
      vertex  -8.491450e+01 -6.544320e+00  9.500000e+00
      vertex  -8.522130e+01  1.300890e+00  1.100000e+01
      vertex  -8.564750e+01  3.337530e+00 -1.900370e+01
    endloop
  endfacet
  facet normal -9.972643e-01 -7.391867e-02  1.905674e-05
    outer loop
      vertex  -8.491450e+01 -6.544320e+00  9.500000e+00
      vertex  -8.564750e+01  3.337530e+00 -1.900370e+01
      vertex  -8.491470e+01 -6.543990e+00  0.000000e+00
    endloop
  endfacet
  facet normal -8.026717e-01  3.776340e-01 -4.616392e-01
    outer loop
      vertex  -8.405250e+01 -6.024350e-01 -2.500000e+01
      vertex  -8.564750e+01  3.337530e+00 -1.900370e+01
      vertex  -8.012580e+01  7.743870e+00 -2.500000e+01
    endloop
  endfacet
  facet normal  0.000000e+00  0.000000e+00 -1.000000e+00
    outer loop
      vertex  -8.405250e+01 -6.024350e-01 -2.500000e+01
      vertex  -8.012580e+01  7.743870e+00 -2.500000e+01
      vertex  -7.911010e+01 -8.387890e+00 -2.500000e+01
    endloop
  endfacet
  facet normal  3.959753e-01  9.180124e-01 -2.137242e-02
    outer loop
      vertex   8.090000e+01  1.230000e+01  9.500000e+00
      vertex   8.936370e+01  7.985670e+00 -1.900370e+01
      vertex   8.090000e+01  1.163640e+01 -1.900370e+01
    endloop
  endfacet
  facet normal  0.000000e+00  4.806656e-01  8.769040e-01
    outer loop
      vertex   8.090000e+01  1.230000e+01  9.500000e+00
      vertex  -7.450000e+01  1.230000e+01  9.500000e+00
      vertex   8.591720e+01  9.563470e+00  1.100000e+01
    endloop
  endfacet
  facet normal  0.000000e+00  9.997291e-01 -2.327488e-02
    outer loop
      vertex   8.090000e+01  1.230000e+01  9.500000e+00
      vertex   8.090000e+01  1.163640e+01 -1.900370e+01
      vertex  -7.450000e+01  1.230000e+01  9.500000e+00
    endloop
  endfacet
  facet normal  4.338537e-01  9.009518e-01 -7.542760e-03
    outer loop
      vertex   9.051630e+01  7.669270e+00  9.500000e+00
      vertex   8.936370e+01  7.985670e+00 -1.900370e+01
      vertex   8.090000e+01  1.230000e+01  9.500000e+00
    endloop
  endfacet
  facet normal  4.260434e-01  8.847328e-01  1.890364e-01
    outer loop
      vertex   9.051630e+01  7.669270e+00  9.500000e+00
      vertex   8.090000e+01  1.230000e+01  9.500000e+00
      vertex   8.591720e+01  9.563470e+00  1.100000e+01
    endloop
  endfacet
  facet normal  3.533603e-01  1.236510e-01  9.272794e-01
    outer loop
      vertex   9.051630e+01  7.669270e+00  9.500000e+00
      vertex   8.591720e+01  9.563470e+00  1.100000e+01
      vertex   9.320000e+01 -5.000000e-06  9.500000e+00
    endloop
  endfacet
  facet normal  9.433180e-01  3.300942e-01 -3.448052e-02
    outer loop
      vertex   9.051630e+01  7.669270e+00  9.500000e+00
      vertex   9.320000e+01 -5.000000e-06  9.500000e+00
      vertex   8.936370e+01  7.985670e+00 -1.900370e+01
    endloop
  endfacet
  facet normal -0.000000e+00  0.000000e+00 -1.000000e+00
    outer loop
      vertex   8.827390e+01 -6.102440e+00 -2.500000e+01
      vertex   8.090000e+01 -9.571670e+00 -2.500000e+01
      vertex   9.045250e+01  6.024350e-01 -2.500000e+01
    endloop
  endfacet
  facet normal  8.786864e-01 -2.855092e-01 -3.826155e-01
    outer loop
      vertex   8.827390e+01 -6.102440e+00 -2.500000e+01
      vertex   9.045250e+01  6.024350e-01 -2.500000e+01
      vertex   9.097720e+01 -5.818470e+00 -1.900370e+01
    endloop
  endfacet
  facet normal  3.875251e-01 -8.236905e-01 -4.139545e-01
    outer loop
      vertex   8.827390e+01 -6.102440e+00 -2.500000e+01
      vertex   8.358320e+01 -1.132280e+01 -1.900370e+01
      vertex   8.090000e+01 -9.571670e+00 -2.500000e+01
    endloop
  endfacet
  facet normal  5.817881e-01 -7.815200e-01 -2.252756e-01
    outer loop
      vertex   8.827390e+01 -6.102440e+00 -2.500000e+01
      vertex   9.097720e+01 -5.818470e+00 -1.900370e+01
      vertex   8.358320e+01 -1.132280e+01 -1.900370e+01
    endloop
  endfacet
  facet normal -3.788634e-02 -7.794257e-01  6.253480e-01
    outer loop
      vertex  -6.300000e+00 -2.822380e+01 -6.433830e+00
      vertex   6.300000e+00 -2.799540e+01 -5.385790e+00
      vertex  -7.723660e+01 -1.199170e+01  9.500000e+00
    endloop
  endfacet
  facet normal -9.929951e-01 -1.160769e-01 -2.206694e-02
    outer loop
      vertex  -8.457720e+01 -5.818470e+00 -1.900370e+01
      vertex  -8.491470e+01 -6.543990e+00  0.000000e+00
      vertex  -8.564750e+01  3.337530e+00 -1.900370e+01
    endloop
  endfacet
  facet normal -9.761524e-01 -1.141080e-01 -1.846777e-01
    outer loop
      vertex  -8.457720e+01 -5.818470e+00 -1.900370e+01
      vertex  -8.564750e+01  3.337530e+00 -1.900370e+01
      vertex  -8.405250e+01 -6.024350e-01 -2.500000e+01
    endloop
  endfacet
  facet normal -7.428330e-01 -4.715687e-01 -4.752074e-01
    outer loop
      vertex  -8.457720e+01 -5.818470e+00 -1.900370e+01
      vertex  -8.405250e+01 -6.024350e-01 -2.500000e+01
      vertex  -7.911010e+01 -8.387890e+00 -2.500000e+01
    endloop
  endfacet
  facet normal  6.232232e-01 -7.815681e-01 -2.727785e-02
    outer loop
      vertex   9.131450e+01 -6.544330e+00  9.500000e+00
      vertex   8.496190e+01 -1.160990e+01  9.500000e+00
      vertex   9.097720e+01 -5.818470e+00 -1.900370e+01
    endloop
  endfacet
  facet normal  9.607500e-01 -2.768035e-01 -1.841787e-02
    outer loop
      vertex   9.131450e+01 -6.544330e+00  9.500000e+00
      vertex   9.097720e+01 -5.818470e+00 -1.900370e+01
      vertex   9.320000e+01 -5.000000e-06  9.500000e+00
    endloop
  endfacet
  facet normal  5.834194e-02 -7.316510e-02  9.956119e-01
    outer loop
      vertex   9.131450e+01 -6.544330e+00  9.500000e+00
      vertex   8.591720e+01  9.563470e+00  1.100000e+01
      vertex   8.496190e+01 -1.160990e+01  9.500000e+00
    endloop
  endfacet
  facet normal  1.476552e-01 -4.254123e-02  9.881235e-01
    outer loop
      vertex   9.131450e+01 -6.544330e+00  9.500000e+00
      vertex   9.320000e+01 -5.000000e-06  9.500000e+00
      vertex   8.591720e+01  9.563470e+00  1.100000e+01
    endloop
  endfacet
  facet normal  3.506614e-01  8.854786e-01 -3.049005e-01
    outer loop
      vertex   8.745220e+01  6.976910e+00 -2.500000e+01
      vertex   8.090000e+01  9.571670e+00 -2.500000e+01
      vertex   8.090000e+01  1.163640e+01 -1.900370e+01
    endloop
  endfacet
  facet normal  3.813246e-01  8.840470e-01 -2.702821e-01
    outer loop
      vertex   8.745220e+01  6.976910e+00 -2.500000e+01
      vertex   8.090000e+01  1.163640e+01 -1.900370e+01
      vertex   8.936370e+01  7.985670e+00 -1.900370e+01
    endloop
  endfacet
  facet normal -0.000000e+00 -0.000000e+00 -1.000000e+00
    outer loop
      vertex   8.745220e+01  6.976910e+00 -2.500000e+01
      vertex   9.045250e+01  6.024350e-01 -2.500000e+01
      vertex   8.090000e+01  9.571670e+00 -2.500000e+01
    endloop
  endfacet
  facet normal  8.512852e-01  4.006775e-01 -3.387786e-01
    outer loop
      vertex   8.745220e+01  6.976910e+00 -2.500000e+01
      vertex   8.936370e+01  7.985670e+00 -1.900370e+01
      vertex   9.045250e+01  6.024350e-01 -2.500000e+01
    endloop
  endfacet
  facet normal -5.615718e-01 -8.271749e-01 -2.046362e-02
    outer loop
      vertex  -7.718320e+01 -1.132280e+01 -1.900370e+01
      vertex  -7.723660e+01 -1.199170e+01  9.500000e+00
      vertex  -8.491470e+01 -6.543990e+00  0.000000e+00
    endloop
  endfacet
  facet normal -5.966306e-01 -8.014581e-01 -4.119396e-02
    outer loop
      vertex  -7.718320e+01 -1.132280e+01 -1.900370e+01
      vertex  -8.491470e+01 -6.543990e+00  0.000000e+00
      vertex  -8.457720e+01 -5.818470e+00 -1.900370e+01
    endloop
  endfacet
  facet normal -5.854602e-01 -7.864528e-01 -1.967952e-01
    outer loop
      vertex  -7.718320e+01 -1.132280e+01 -1.900370e+01
      vertex  -8.457720e+01 -5.818470e+00 -1.900370e+01
      vertex  -7.911010e+01 -8.387890e+00 -2.500000e+01
    endloop
  endfacet
  facet normal -1.570321e-01 -9.060316e-01 -3.929982e-01
    outer loop
      vertex  -7.718320e+01 -1.132280e+01 -1.900370e+01
      vertex  -7.911010e+01 -8.387890e+00 -2.500000e+01
      vertex  -6.300000e+00 -2.646790e+01 -1.241080e+01
    endloop
  endfacet
  facet normal -1.759924e-01 -9.444781e-01 -2.774667e-01
    outer loop
      vertex  -7.718320e+01 -1.132280e+01 -1.900370e+01
      vertex  -6.300000e+00 -2.646790e+01 -1.241080e+01
      vertex  -6.300000e+00 -2.822380e+01 -6.433830e+00
    endloop
  endfacet
  facet normal -2.279637e-01 -9.733915e-01 -2.326984e-02
    outer loop
      vertex  -7.718320e+01 -1.132280e+01 -1.900370e+01
      vertex  -6.300000e+00 -2.822380e+01 -6.433830e+00
      vertex  -7.723660e+01 -1.199170e+01  9.500000e+00
    endloop
  endfacet
  facet normal  2.399025e-02 -9.971803e-01 -7.110421e-02
    outer loop
      vertex   6.300000e+00 -2.762260e+01 -1.061400e+01
      vertex   6.300000e+00 -2.799540e+01 -5.385790e+00
      vertex  -6.300000e+00 -2.822380e+01 -6.433830e+00
    endloop
  endfacet
  facet normal -4.767788e-02 -9.583626e-01 -2.815457e-01
    outer loop
      vertex   6.300000e+00 -2.762260e+01 -1.061400e+01
      vertex  -6.300000e+00 -2.822380e+01 -6.433830e+00
      vertex  -6.300000e+00 -2.646790e+01 -1.241080e+01
    endloop
  endfacet
  facet normal  3.555801e-02 -7.085924e-01 -7.047216e-01
    outer loop
      vertex   6.300000e+00 -2.762260e+01 -1.061400e+01
      vertex  -6.300000e+00 -2.646790e+01 -1.241080e+01
      vertex   8.090000e+01 -9.571670e+00 -2.500000e+01
    endloop
  endfacet
  facet normal  1.986173e-01 -9.775950e-01 -6.970767e-02
    outer loop
      vertex   6.300000e+00 -2.762260e+01 -1.061400e+01
      vertex   8.358320e+01 -1.132280e+01 -1.900370e+01
      vertex   6.300000e+00 -2.799540e+01 -5.385790e+00
    endloop
  endfacet
  facet normal  1.583400e-01 -9.264786e-01 -3.414176e-01
    outer loop
      vertex   6.300000e+00 -2.762260e+01 -1.061400e+01
      vertex   8.090000e+01 -9.571670e+00 -2.500000e+01
      vertex   8.358320e+01 -1.132280e+01 -1.900370e+01
    endloop
  endfacet
endsolid vcg
